<svg xmlns="http://www.w3.org/2000/svg" width="600" height="470" viewBox="0 0 600 470" fill="none"><defs><clipPath id="ClipPath-1"><rect x="194" y="9" width="24" height="24" fill="#fff"/></clipPath><clipPath id="ClipPath-2"><rect x="404" y="423" width="24" height="24" fill="#fff"/></clipPath><clipPath id="ClipPath-3"><rect y="169" width="24" height="24" fill="#fff"/></clipPath><clipPath id="ClipPath-4"><rect x="291" y="35" width="32" height="32" fill="#fff"/></clipPath></defs><style>
@keyframes a0_t { 0% { transform: translate(0px,0px); } 16.667% { transform: translate(0px,0px); animation-timing-function: cubic-bezier(.4,0,.6,1); } 70% { transform: translate(0px,4px); animation-timing-function: cubic-bezier(.4,0,.6,1); } 100% { transform: translate(0px,0px); } }
@keyframes a1_t { 0% { transform: translate(0px,0px); animation-timing-function: cubic-bezier(0,0,.6,1); } 36.667% { transform: translate(0px,-6.7px); animation-timing-function: cubic-bezier(.4,0,.6,1); } 83.333% { transform: translate(0px,0px); } 100% { transform: translate(0px,0px); } }
</style><path d="M466.3 402.4c.5-0.5 1.1-0.9 1.8-1.2c.7-0.3 1.5-0.5 2.2-0.5c1 0 2 .3 2.9 .8c.9 .5 1.6 1.2 2.1 2.1c.8-0.4 1.8-0.6 2.7-0.6c1 0 2 .2 2.9 .6c.8 .4 1.6 1 2.3 1.7c.6 .7 1.1 1.6 1.4 2.5c.4 .9 .5 1.9 .4 2.9c-0.1 .9-0.4 1.9-0.9 2.7c-0.5 .9-1.1 1.6-1.9 2.2c-0.8 .5-1.7 .9-2.6 1.2c-1 .2-2 .2-2.9 0c-0.6 1.1-1.7 1.9-2.9 2.3c-1.2 .4-2.6 .3-3.7-0.3c-0.5 1.1-1.2 2-2.2 2.6c-1 .6-2.1 1-3.2 .9c-1.2 0-2.3-0.4-3.2-1c-1-0.7-1.7-1.6-2.1-2.7c-0.4 .1-0.7 .1-1.1 .1c-1.2 0-2.3-0.4-3.2-1.1c-1-0.8-1.6-1.8-1.9-2.9c-0.3-1.1-0.2-2.4 .2-3.4c.4-1.1 1.2-2 2.2-2.6c-0.6-1.4-0.6-3-0.1-4.4c.4-1.5 1.4-2.7 2.7-3.5c1.3-0.7 2.9-1 4.3-0.7c1.5 .3 2.9 1.1 3.8 2.3" fill="#0f9bd7"/><g clip-path="url(#ClipPath-1)"><path d="M217.5 21.3c0-0.8-0.1-1.6-0.2-2.3h-11.3v4.5h6.5c-0.3 1.5-1.2 2.7-2.4 3.6v3h3.8c2.3-2.1 3.6-5.2 3.6-8.8Z" fill="#4285f4"/><path d="M206 33c3.2 0 5.9-1.1 7.9-2.9l-3.8-3c-1.1 .7-2.5 1.1-4.1 1.1c-3.1 0-5.8-2.1-6.7-4.9h-4v3.1c2 3.9 6 6.6 10.7 6.6Z" fill="#34a853"/><path d="M199.3 23.3c-0.3-0.7-0.4-1.5-0.4-2.3c0-0.8 .1-1.6 .4-2.3v-3.1h-4c-0.8 1.6-1.3 3.5-1.3 5.4c0 1.9 .5 3.8 1.3 5.4l4-3.1Z" fill="#fbbc05"/><path d="M206 13.8c1.8 0 3.3 .6 4.6 1.8l3.4-3.5c-2.1-1.9-4.8-3.1-8-3.1c-4.7 0-8.7 2.7-10.7 6.6l4 3.1c.9-2.8 3.6-4.9 6.7-4.9Z" fill="#ea4335"/></g><path fill-rule="evenodd" clip-rule="evenodd" d="M457 412.2c0 0 0 0 0 .1c.1 0 .1 0 .2 .1c.4 .2 .7 .2 1 .2c.7 0 1.1-0.4 1.1-1c0-0.6-0.5-0.8-0.9-0.9h-0.1c-0.3-0.2-0.6-0.3-0.6-0.5c0-0.2 .2-0.4 .4-0.4c.3 0 .7 .1 .9 .3c0 0 .1 0 .1 0c0-0.1 .1-0.4 .1-0.4c0-0.1 0-0.1 0-0.1c-0.3-0.2-0.6-0.3-1-0.3h-0.1c-0.6 0-1 .4-1 1c0 .6 .5 .8 .9 .9h.1c.3 .1 .6 .2 .6 .5c0 .2-0.2 .4-0.5 .4c-0.1 0-0.5 0-0.9-0.3c0 0 0 0-0.1-0.1c0 0 0 0-0.1 .1l-0.1 .4m10 0c0 0 0 0 0 .1c0 0 .1 0 .2 .1c.3 .2 .6 .2 1 .2c.6 0 1.1-0.4 1.1-1c0-0.6-0.5-0.8-1-0.9c-0.3-0.2-0.6-0.3-0.6-0.5c0-0.2 .1-0.4 .4-0.4c.3 0 .6 .1 .9 .3c0 0 0 0 0 0c.1-0.1 .2-0.4 .2-0.4c0-0.1 0-0.1 0-0.1c-0.3-0.2-0.7-0.3-1-0.3h-0.1c-0.6 0-1 .4-1 1c0 .6 .4 .8 .9 .9h.1c.3 .1 .6 .2 .6 .5c0 .2-0.2 .4-0.5 .4c-0.1 0-0.5 0-0.9-0.3c0 0-0.1 0-0.1-0.1c0 0-0.1 0-0.1 .1l-0.1 .4m6.8-1.2c0 .3-0.1 .6-0.2 .8c-0.1 .2-0.3 .3-0.6 .3c-0.2 0-0.4-0.1-0.5-0.3c-0.1-0.2-0.2-0.5-0.2-0.8c0-0.4 .1-0.7 .2-0.9c.1-0.1 .3-0.2 .5-0.2c.3 0 .5 .1 .6 .2c.1 .2 .2 .5 .2 .9m.5-0.7c0-0.2-0.1-0.4-0.2-0.5c-0.1-0.2-0.3-0.3-0.5-0.4c-0.1 0-0.3-0.1-0.6-0.1c-0.2 0-0.4 .1-0.6 .1c-0.1 .1-0.3 .2-0.4 .4c-0.1 .1-0.2 .3-0.3 .5c0 .2-0.1 .4-0.1 .7c0 .2 .1 .4 .1 .6c.1 .2 .2 .4 .3 .5c.1 .2 .3 .3 .4 .4c.2 .1 .4 .1 .6 .1c.3 0 .5 0 .6-0.1c.2-0.1 .4-0.2 .5-0.4c.1-0.1 .2-0.3 .2-0.5c.1-0.2 .1-0.4 .1-0.6c0-0.3 0-0.5-0.1-0.7m4.7 1.7c0-0.1-0.1-0.1-0.1-0.1c0 .1-0.1 .1-0.2 .1c-0.1 0-0.2 0-0.3 0c-0.3 0-0.5-0.1-0.7-0.2c-0.1-0.2-0.2-0.5-0.2-0.8c0-0.4 0-0.6 .2-0.8c.1-0.2 .3-0.3 .6-0.3c.3 0 .4 0 .6 .1c0 0 .1 0 .1-0.1c0-0.1 .1-0.2 .1-0.4c0 0 0-0.1 0-0.1c-0.1 0-0.3 0-0.4-0.1c-0.1 0-0.3 0-0.4 0c-0.3 0-0.5 0-0.6 .1c-0.2 .1-0.4 .2-0.5 .4c-0.1 .1-0.2 .3-0.3 .5c0 .2-0.1 .4-0.1 .7c0 .5 .2 .9 .4 1.2c.3 .3 .6 .4 1.1 .4c.3 0 .6-0.1 .8-0.2c0 0 .1 0 .1 0l-0.2-0.4m1-1.4c0-0.2 .1-0.3 .2-0.5c.1-0.1 .3-0.3 .5-0.3c.3 0 .4 .2 .6 .3c0 .2 .1 .3 .1 .5h-1.4Zm1.9-0.4c0-0.2-0.1-0.4-0.2-0.5c-0.1-0.1-0.3-0.2-0.4-0.3c-0.2-0.1-0.4-0.1-0.5-0.1c-0.3 0-0.5 .1-0.7 .1c-0.2 .1-0.3 .2-0.4 .4c-0.1 .1-0.2 .3-0.3 .5c0 .2-0.1 .4-0.1 .7c0 .2 .1 .4 .1 .6c.1 .2 .2 .4 .3 .5c.1 .2 .3 .3 .5 .4c.2 .1 .4 .1 .7 .1c.5 0 .8-0.1 1-0.2c0 0 0 0 0-0.1l-0.2-0.4c0 0 0 0 0 0c-0.2 0-0.4 .1-0.8 .1c-0.3 0-0.5 0-0.7-0.2c-0.1-0.1-0.2-0.4-0.2-0.7h1.9c0 0 .1 0 .1 0c0 0 0-0.4-0.1-0.9Zm-17.3 .4c0-0.2 .1-0.3 .2-0.5c.1-0.1 .3-0.3 .5-0.3c.3 0 .4 .2 .5 .3c.1 .2 .2 .3 .2 .5h-1.4Zm1.9-0.4c0-0.2-0.1-0.4-0.2-0.5c-0.2-0.1-0.3-0.2-0.4-0.3c-0.2-0.1-0.4-0.1-0.5-0.1c-0.3 0-0.5 .1-0.7 .1c-0.2 .1-0.3 .2-0.4 .4c-0.1 .1-0.2 .3-0.3 .5c0 .2-0.1 .4-0.1 .7c0 .2 .1 .4 .1 .6c.1 .2 .2 .4 .3 .5c.1 .2 .3 .3 .5 .4c.2 .1 .4 .1 .7 .1c.5 0 .8-0.1 .9-0.2c.1 0 .1 0 .1-0.1l-0.2-0.4c0 0 0 0 0 0c-0.2 0-0.4 .1-0.8 .1c-0.3 0-0.5 0-0.7-0.2c-0.1-0.1-0.2-0.4-0.2-0.7h1.9c0 0 .1 0 .1 0c0 0 0-0.4-0.1-0.9Zm-6.1 1.8c0-0.1 0-0.1-0.1-0.2c0 0 0-0.1 0-0.2c0-0.2 0-0.3 .1-0.4c0 0 .2-0.2 .6-0.2c.2 0 .4 0 .5 .1v.9c0 0-0.2 .1-0.5 .1c-0.4 0-0.6-0.1-0.6-0.1Zm.8-1.5c-0.1 0-0.2 0-0.3 0c-0.2 0-0.3 0-0.5 .1c-0.1 0-0.2 .1-0.4 .2c-0.1 .1-0.2 .2-0.2 .3c-0.1 .1-0.1 .3-0.1 .5c0 .2 0 .3 0 .4c.1 .2 .2 .3 .3 .4c.1 0 .2 .1 .4 .1c.1 .1 .3 .1 .5 .1c.2 0 .4 0 .6-0.1c.1 0 .3 0 .5-0.1c0 0 .1 0 .1 0c0 0 0-0.1 0-0.1v-1.8c0-0.4-0.1-0.7-0.3-0.9c-0.2-0.2-0.5-0.3-0.8-0.3c-0.2 0-0.4 0-0.6 .1c0 0-0.4 0-0.6 .2c0 0 0 0 0 .1l.2 .4c0 0 0 0 0 0c0 0 0 0 .1 0c.3-0.2 .8-0.2 .8-0.2c.2 0 .4 0 .5 .1c.1 .1 .1 .2 .1 .5v.1c-0.1-0.1-0.3-0.1-0.3-0.1Zm15.5-1c0 0 0 0 0-0.1c0 0 0 0 0 0c0 0 0 0 0 0c0 0 0 0 0 0c-0.1 0-0.2-0.1-0.4-0.1c-0.2 0-0.3 .1-0.4 .1c-0.2 .1-0.3 .2-0.4 .3v-0.3c0 0 0 0 0 0h-0.5c-0.1 0-0.1 0-0.1 0v3.1c0 0 0 0 0 0c.1 0 .1 0 .1 0h.5c0 0 0 0 0 0c0 0 0 0 0 0v-1.6c0-0.2 .1-0.4 .1-0.5c.1-0.1 .1-0.2 .2-0.3c0-0.1 .1-0.1 .2-0.1c.1-0.1 .2-0.1 .3-0.1c.1 0 .2 0 .2 0c0 0 0 0 .1 0c0-0.1 .1-0.4 .1-0.4" fill="#fffffe"/><path fill-rule="evenodd" clip-rule="evenodd" d="M472 408.1c-0.1-0.1-0.1-0.1-0.2-0.1c-0.1 0-0.2 0-0.3 0c-0.3 0-0.6 .1-0.8 .3c-0.2 .2-0.3 .5-0.4 .9v.2h-0.4c0 0-0.1 0-0.1 0l-0.1 .5c0 0 0 0 .1 0h.4l-0.4 2.6c0 .2-0.1 .3-0.1 .5c-0.1 .1-0.1 .2-0.2 .3c0 0-0.1 .1-0.1 .1c-0.1 0-0.2 0-0.3 0c0 0-0.1 0-0.1 0c-0.1 0-0.1 0-0.1 0c0 0-0.1 0-0.1 0c0 .1-0.1 .4-0.1 .4c0 .1 0 .1 0 .1c.1 0 .1 .1 .2 .1c.1 0 .2 0 .3 0c.1 0 .3 0 .4-0.1c.2 0 .3-0.1 .4-0.2c.1-0.2 .2-0.3 .2-0.5c.1-0.2 .2-0.4 .2-0.7l.4-2.6h.7c0 0 0 0 0 0l.1-0.5c0 0 0 0-0.1 0h-0.6c0 0 .1-0.3 .1-0.5c.1-0.1 .1-0.2 .2-0.2c0-0.1 .1-0.1 .1-0.1c.1 0 .2 0 .2 0c.1 0 .1 0 .2 0c.1 0 .1 0 .1 0c.1 0 .1 0 .1 0l.1-0.5c0 0 0 0 0 0Zm-8.6 4.4c0 0 0 0-0.1 0h-0.5c0 0 0 0 0 0v-4.4c0 0 0 0 0 0h.5c.1 0 .1 0 .1 0v4.4Z" fill="#fffffe"/><g clip-path="url(#ClipPath-2)"><path d="M420.4 425.9v18c0 2 1.4 3.1 2.9 3.1c1.3 0 2.8-1 2.8-3.1v-17.9c0-1.8-1.3-3-2.8-3c-1.5 0-2.9 1.3-2.9 2.9Z" fill="#f9ab00"/><path d="M412.9 435v8.9c0 2 1.4 3.1 2.9 3.1c1.3 0 2.8-1 2.8-3.1v-8.8c0-1.8-1.3-3-2.8-3c-1.5 0-2.9 1.3-2.9 2.9Z" fill="#e37400"/><path d="M408.3 447c1.5 0 2.8-1.3 2.8-2.9c0-1.5-1.3-2.8-2.8-2.8c-1.6 0-2.9 1.3-2.9 2.8c0 1.6 1.3 2.9 2.9 2.9Z" fill="#e37400"/></g><g clip-path="url(#ClipPath-3)" transform="translate(12,181) translate(-12,-181)" style="animation: 3s linear infinite both a0_t;"><path d="M12 193c6.6 0 12-5.4 12-12c0-6.6-5.4-12-12-12c-6.6 0-12 5.4-12 12c0 6.6 5.4 12 12 12Z" fill="#4a8cff"/><path d="M4.2 184.8v-5.7c0-1.3 1-2.3 2.3-2.3h8.2c.2 0 .4 .2 .4 .4v5.7c0 1.3-1 2.3-2.3 2.3h-8.2c-0.2 0-0.4-0.2-0.4-0.4Zm11.5-2.2l3.3 2.4c.3 .3 .6 .2 .6-0.2v-7.6c0-0.5-0.3-0.4-0.6-0.2l-3.3 2.4v3.2Z" fill="#fff"/></g><g clip-path="url(#ClipPath-4)" transform="translate(307,51) translate(-307,-51)" style="animation: 3s linear infinite both a1_t;"><ellipse cx="307" cy="51" fill="#f7761e" rx="16" ry="16"/><path d="M313.3 48.5v-2.6c.4-0.2 .6-0.4 .9-0.7c.2-0.4 .3-0.7 .3-1.1v-0.1c0-1.1-0.9-2-2-2h-0.1c-0.5 0-1 .2-1.4 .6c-0.4 .4-0.6 .9-0.6 1.4v.1c0 .4 .1 .7 .3 1.1c.2 .3 .5 .5 .9 .7v2.6c-1 .1-2 .6-2.7 1.2l-7.2-5.6c.1-0.2 .1-0.3 .1-0.5c0-0.5-0.1-0.9-0.4-1.3c-0.2-0.4-0.6-0.6-1-0.8c-0.4-0.2-0.8-0.2-1.3-0.1c-0.4 0-0.8 .3-1.1 .6c-0.3 .3-0.6 .7-0.6 1.1c-0.1 .5-0.1 .9 .1 1.3c.2 .4 .4 .8 .8 1c.4 .3 .8 .4 1.3 .4c.4 0 .7-0.1 1.1-0.3l7 5.5c-0.6 .9-1 2.1-1 3.2c.1 1.1 .4 2.2 1.1 3.2l-2.2 2.1c-0.1 0-0.3-0.1-0.5-0.1c-0.4 0-0.7 .1-1 .3c-0.3 .2-0.6 .5-0.7 .9c-0.1 .3-0.2 .7-0.1 1c.1 .4 .2 .7 .5 1c.3 .2 .6 .4 .9 .5c.4 .1 .8 0 1.1-0.1c.4-0.2 .6-0.4 .8-0.7c.3-0.3 .4-0.7 .4-1c0-0.2-0.1-0.4-0.1-0.6l2.1-2.1c.7 .6 1.5 .9 2.3 1.1c.9 .2 1.8 .2 2.6-0.1c.8-0.2 1.6-0.6 2.3-1.2c.6-0.5 1.2-1.2 1.5-2c.3-0.8 .5-1.7 .4-2.6c0-0.8-0.2-1.7-0.7-2.4c-0.4-0.8-1-1.5-1.7-2c-0.7-0.4-1.5-0.8-2.4-0.9Zm-0.9 8.5c-0.4 .1-0.7 0-1.1-0.2c-0.4-0.1-0.7-0.3-1-0.6c-0.3-0.3-0.5-0.6-0.6-0.9c-0.2-0.4-0.3-0.8-0.3-1.2c0-0.4 .1-0.8 .3-1.1c.1-0.4 .3-0.7 .6-1c.3-0.2 .6-0.5 1-0.6c.4-0.1 .7-0.2 1.1-0.2c.8 0 1.5 .3 2 .9c.6 .5 .9 1.3 .9 2c0 .8-0.3 1.5-0.9 2c-0.5 .6-1.2 .9-2 .9" fill="#fff"/></g></svg>