<svg xmlns="http://www.w3.org/2000/svg" fill="none" viewBox="0 0 125 68" id="root"><path fill="url(#a)" d="M64.719 0c-3.553 0-6.434 2.83-6.44 6.323v.003c0 3.497-2.885 6.33-6.44 6.33H44.92c-3.556 0-6.437 2.837-6.436 6.333v.003c0 3.497-2.886 6.33-6.441 6.33H6.425C2.869 25.328-.007 28.17 0 31.666v.087c0 3.496 2.882 6.33 6.438 6.33H8.04c3.556 0 6.438 2.835 6.438 6.332v.003c0 3.497 2.883 6.331 6.438 6.331h3.996c3.556 0 6.438 2.835 6.438 6.331 0 3.499 2.883 6.334 6.441 6.334h32.473V37.849c.002-3.496 2.886-6.33 6.442-6.329h31.753a6.476 6.476 0 0 0 3.932-1.321V0H64.718Z" opacity=".15"></path><path fill="url(#b)" d="M71.72 0c-3.553 0-6.434 2.83-6.44 6.323v.003c0 3.497-2.885 6.33-6.44 6.33h-6.918c-3.555 0-6.437 2.837-6.436 6.333v.003c-.001 3.497-2.886 6.33-6.441 6.33H13.426C9.87 25.327 6.994 28.17 7 31.666v.087c0 3.496 2.882 6.33 6.438 6.33h1.602c3.556 0 6.438 2.835 6.438 6.332v.003c0 3.497 2.883 6.331 6.438 6.331h3.996c3.555 0 6.438 2.835 6.438 6.331 0 3.499 2.883 6.334 6.441 6.334h32.473v-25.17c.002-3.496 2.886-6.33 6.442-6.329h23.106a8.003 8.003 0 0 0 8.003-8v-3.403a4.62 4.62 0 0 1 4.619-4.62 4.62 4.62 0 0 0 4.619-4.619V7.947A7.947 7.947 0 0 0 116.107 0H71.719Z"></path><path fill="url(#c)" d="M83.543 11.952c0-.022.013-.249.013-.278 0-1.087-.895-1.968-2-1.968a2.01 2.01 0 0 0-1.137.348 2.61 2.61 0 0 0 .023-.348c0-1.415-1.165-2.56-2.603-2.56-1.438 0-2.604 1.145-2.604 2.56v.023a2.008 2.008 0 0 0-.304-.023c-1.105 0-2.002.88-2.002 1.968 0 .032.013.254.013.278 0 .933-.77 1.689-1.717 1.689H85.26c-.949 0-1.718-.757-1.718-1.689Z"></path><path fill="#0065FF" d="M82.18 18.185c1.673-4.917 7.082-7.57 12.082-5.924 5 1.645 7.697 6.963 6.024 11.88a8.361 8.361 0 0 1-.089.251L93.051 44.46 75.04 38.25l7.142-20.066Zm15.066 5.19c1.034-3.335-.877-6.863-4.268-7.879-3.195-.958-6.603.654-7.837 3.706L79.03 36.357l12.106 4.173 6.111-17.155Z"></path><path fill="url(#d)" d="M66.488 33.037a16.676 16.676 0 0 0 5.365-10.676 1.309 1.309 0 0 1 1.428-1.17c.109.01.216.032.319.069l32.166 11.078a1.29 1.29 0 0 1 .664 1.935 16.742 16.742 0 0 0-2.574 11.707c1.498 10.586-6.014 20.362-16.779 21.835a20.003 20.003 0 0 1-8.749-.748h-4.293c-10.344-3.282-16.023-14.188-12.687-24.36a19.306 19.306 0 0 1 5.255-8.162l-.114-1.507Z"></path><path fill="#DFE1E5" d="M71.853 22.361a1.309 1.309 0 0 1 1.427-1.17c.11.01.216.032.32.069l27.756 9.564a1.291 1.291 0 0 1 .664 1.936 16.73 16.73 0 0 0-2.574 11.707c1.507 10.584-5.998 20.367-16.762 21.849-10.764 1.482-20.711-5.898-22.218-16.483-.887-6.226 1.358-12.488 6.018-16.792a16.675 16.675 0 0 0 5.367-10.68h.002Z"></path><path fill="url(#e)" d="m74.132 63.493.422.14c9.276 2.925 19.208-2.1 22.182-11.223a17.076 17.076 0 0 0 .677-7.667 18.809 18.809 0 0 1 2.396-12.316l-26.02-8.965a18.751 18.751 0 0 1-5.896 11.046 17.143 17.143 0 0 0-.741 24.52 17.675 17.675 0 0 0 6.966 4.462l.014.002v.002Z"></path><path fill="#B3BAC5" d="M78.593 53.24c1.933.668 4.052-.332 4.731-2.233.064-.18.114-.363.148-.549l.599-3.194a5.42 5.42 0 0 0 2.853-3.33c.78-2.666-.606-5.482-3.217-6.536l-.246-.088c-2.866-.988-6.004.495-7.01 3.313a5.325 5.325 0 0 0 .214 4.091l-1.557 2.861c-.969 1.78-.285 3.996 1.525 4.948.167.088.34.163.519.225l1.439.493.002-.001Z"></path><path fill="#253858" d="M78.392 41.312a3.328 3.328 0 0 0 .204 2.693 1.597 1.597 0 0 1-.025 1.514l-1.65 3.027a1.615 1.615 0 0 0 .68 2.205 1.5 1.5 0 0 0 .233.1l1.44.498a1.664 1.664 0 0 0 2.11-1c.027-.08.049-.16.064-.241l.644-3.419c.106-.523.466-.962.964-1.173a3.382 3.382 0 0 0 1.892-2.136c.451-1.825-.687-3.665-2.544-4.108-1.672-.4-3.387.47-4.028 2.04h.016Z"></path><path fill="url(#f)" d="M49.262 55.837c3.31-5.407 10.45-7.152 15.95-3.896a11.448 11.448 0 0 1 5.274 6.992h.06c2.953 0 5.566 1.877 6.462 4.643H47.742c-.438-2.675.1-5.416 1.52-7.738Z"></path><path fill="url(#g)" d="M35.077 59.844a6.816 6.816 0 0 1 3.66 1.058c1.296-3.065 4.338-5.062 7.713-5.065h.125c4.374.07 7.953 3.444 8.211 7.737H28.987c1.139-2.285 3.503-3.733 6.09-3.73Z"></path><path fill="#B2D4FF" d="M33.522 11.026c-2.718-.6-4.84-2.687-5.45-5.36-.61 2.672-2.733 4.76-5.452 5.36 2.718.6 4.84 2.687 5.451 5.36.61-2.672 2.732-4.76 5.451-5.36m3.324 8.98a1.21 1.21 0 0 0 1.22-1.2 1.21 1.21 0 0 0-1.22-1.201 1.21 1.21 0 0 0-1.221 1.2c0 .663.547 1.2 1.22 1.2Zm65.17 33.79c.712 0 1.288-.567 1.288-1.266 0-.7-.576-1.267-1.288-1.267-.711 0-1.287.567-1.287 1.267 0 .699.576 1.266 1.287 1.266m16.431-9.329c-2.389-.528-4.254-2.362-4.791-4.712-.536 2.35-2.401 4.184-4.791 4.712 2.39.527 4.255 2.361 4.791 4.711.537-2.35 2.402-4.184 4.791-4.711"></path><path fill="url(#h)" d="M113.462 59.844a6.817 6.817 0 0 0-3.661 1.058c-1.296-3.065-4.338-5.062-7.713-5.065h-.125c-4.373.07-7.953 3.444-8.211 7.737h25.799c-1.138-2.285-3.502-3.733-6.089-3.73Z"></path><defs><linearGradient id="a" x1="0" x2="117.054" y1="31.708" y2="31.708" gradientUnits="userSpaceOnUse"><stop stop-color="#4796FF"></stop><stop offset=".19" stop-color="#4B9BFF"></stop><stop offset=".39" stop-color="#59A6FF"></stop><stop offset=".59" stop-color="#6EB9FF"></stop><stop offset=".8" stop-color="#8AD2FF"></stop><stop offset="1" stop-color="#B0F4FF"></stop></linearGradient><linearGradient id="b" x1="7.001" x2="124.055" y1="31.708" y2="31.708" gradientUnits="userSpaceOnUse"><stop stop-color="#4C9AFF"></stop><stop offset=".19" stop-color="#509EFF"></stop><stop offset=".39" stop-color="#5DA9FF"></stop><stop offset=".59" stop-color="#71BBFF"></stop><stop offset=".8" stop-color="#8ED4FF"></stop><stop offset="1" stop-color="#B3F5FF"></stop></linearGradient><linearGradient id="c" x1="71.225" x2="85.261" y1="10.393" y2="10.393" gradientUnits="userSpaceOnUse"><stop stop-color="#B3F5FF"></stop><stop offset=".34" stop-color="#DEEBFF"></stop></linearGradient><linearGradient id="d" x1="60.393" x2="106.647" y1="44.592" y2="44.592" gradientUnits="userSpaceOnUse"><stop stop-color="#FFEBE5"></stop><stop offset=".49" stop-color="#C1C7D0"></stop><stop offset="1" stop-color="#B3BAC5"></stop></linearGradient><linearGradient id="e" x1="62.35" x2="99.809" y1="43.965" y2="43.965" gradientUnits="userSpaceOnUse"><stop stop-color="#C1C7D0"></stop><stop offset="1" stop-color="#FFEBE5"></stop></linearGradient><linearGradient id="f" x1="76.335" x2="30.157" y1="54.875" y2="65.956" gradientUnits="userSpaceOnUse"><stop offset=".26" stop-color="#DEEBFF"></stop><stop offset="1" stop-color="#B2F4FF" stop-opacity=".8"></stop></linearGradient><linearGradient id="g" x1="59.702" x2="15.339" y1="59.417" y2="60.863" gradientUnits="userSpaceOnUse"><stop offset=".26" stop-color="#DEEBFF"></stop><stop offset="1" stop-color="#B2F4FF"></stop></linearGradient><linearGradient id="h" x1="88.837" x2="133.201" y1="59.417" y2="60.863" gradientUnits="userSpaceOnUse"><stop offset=".26" stop-color="#DEEBFF"></stop><stop offset="1" stop-color="#B2F4FF"></stop></linearGradient></defs></svg>